<mxfile host="app.diagrams.net" modified="2021-06-04T17:47:46.759Z" agent="5.0 (Windows NT 10.0; Win64; x64) AppleWebKit/537.36 (KHTML, like Gecko) Chrome/90.0.4430.212 Safari/537.36" etag="Uee-PeRCiJvY0YBung5N" version="14.7.4" type="github">
  <diagram id="C5RBs43oDa-KdzZeNtuy" name="Page-1">
    <mxGraphModel dx="868" dy="435" grid="1" gridSize="10" guides="1" tooltips="1" connect="1" arrows="1" fold="1" page="1" pageScale="1" pageWidth="827" pageHeight="1169" math="0" shadow="0">
      <root>
        <mxCell id="WIyWlLk6GJQsqaUBKTNV-0" />
        <mxCell id="WIyWlLk6GJQsqaUBKTNV-1" parent="WIyWlLk6GJQsqaUBKTNV-0" />
        <mxCell id="XVykYsq7m5JyIRtIchRK-10" value="" style="edgeStyle=orthogonalEdgeStyle;rounded=0;orthogonalLoop=1;jettySize=auto;html=1;" parent="WIyWlLk6GJQsqaUBKTNV-1" source="XVykYsq7m5JyIRtIchRK-2" target="XVykYsq7m5JyIRtIchRK-4" edge="1">
          <mxGeometry relative="1" as="geometry" />
        </mxCell>
        <mxCell id="XVykYsq7m5JyIRtIchRK-2" value="Mulai" style="ellipse;whiteSpace=wrap;html=1;rounded=1;" parent="WIyWlLk6GJQsqaUBKTNV-1" vertex="1">
          <mxGeometry x="316" y="160" width="120" height="30" as="geometry" />
        </mxCell>
        <mxCell id="XVykYsq7m5JyIRtIchRK-4" value="Mendeteksi Seluruh Sensor" style="shape=parallelogram;perimeter=parallelogramPerimeter;whiteSpace=wrap;html=1;fixedSize=1;rounded=0;" parent="WIyWlLk6GJQsqaUBKTNV-1" vertex="1">
          <mxGeometry x="280" y="231" width="192" height="49" as="geometry" />
        </mxCell>
        <mxCell id="XVykYsq7m5JyIRtIchRK-13" value="" style="edgeStyle=orthogonalEdgeStyle;rounded=0;orthogonalLoop=1;jettySize=auto;html=1;entryX=0;entryY=0.5;entryDx=0;entryDy=0;" parent="WIyWlLk6GJQsqaUBKTNV-1" source="XVykYsq7m5JyIRtIchRK-6" target="XVykYsq7m5JyIRtIchRK-5" edge="1">
          <mxGeometry relative="1" as="geometry">
            <mxPoint x="499.5" y="365" as="targetPoint" />
          </mxGeometry>
        </mxCell>
        <mxCell id="XVykYsq7m5JyIRtIchRK-5" value="Rak Penjemur tetap Diluar" style="shape=parallelogram;perimeter=parallelogramPerimeter;whiteSpace=wrap;html=1;fixedSize=1;rounded=0;" parent="WIyWlLk6GJQsqaUBKTNV-1" vertex="1">
          <mxGeometry x="490" y="350" width="170" height="30" as="geometry" />
        </mxCell>
        <mxCell id="XVykYsq7m5JyIRtIchRK-24" style="edgeStyle=orthogonalEdgeStyle;rounded=0;orthogonalLoop=1;jettySize=auto;html=1;entryX=0.5;entryY=0;entryDx=0;entryDy=0;" parent="WIyWlLk6GJQsqaUBKTNV-1" source="XVykYsq7m5JyIRtIchRK-6" target="XVykYsq7m5JyIRtIchRK-20" edge="1">
          <mxGeometry relative="1" as="geometry" />
        </mxCell>
        <mxCell id="XVykYsq7m5JyIRtIchRK-6" value="Jika Terang, dan tidak Hujan" style="rhombus;whiteSpace=wrap;html=1;rounded=0;" parent="WIyWlLk6GJQsqaUBKTNV-1" vertex="1">
          <mxGeometry x="311" y="300" width="130" height="130" as="geometry" />
        </mxCell>
        <mxCell id="XVykYsq7m5JyIRtIchRK-28" style="edgeStyle=orthogonalEdgeStyle;rounded=0;orthogonalLoop=1;jettySize=auto;html=1;entryX=0.5;entryY=0;entryDx=0;entryDy=0;" parent="WIyWlLk6GJQsqaUBKTNV-1" source="XVykYsq7m5JyIRtIchRK-20" target="XVykYsq7m5JyIRtIchRK-23" edge="1">
          <mxGeometry relative="1" as="geometry">
            <mxPoint x="383.5" y="680" as="targetPoint" />
          </mxGeometry>
        </mxCell>
        <mxCell id="XVykYsq7m5JyIRtIchRK-20" value="Rak Penjemur Keluar" style="rounded=1;whiteSpace=wrap;html=1;" parent="WIyWlLk6GJQsqaUBKTNV-1" vertex="1">
          <mxGeometry x="296.5" y="460" width="159" height="30" as="geometry" />
        </mxCell>
        <mxCell id="XVykYsq7m5JyIRtIchRK-23" value="Selesai" style="ellipse;whiteSpace=wrap;html=1;rounded=1;" parent="WIyWlLk6GJQsqaUBKTNV-1" vertex="1">
          <mxGeometry x="316" y="530" width="120" height="30" as="geometry" />
        </mxCell>
        <mxCell id="XVykYsq7m5JyIRtIchRK-32" value="Y" style="text;html=1;align=center;verticalAlign=middle;resizable=0;points=[];autosize=1;strokeColor=none;" parent="WIyWlLk6GJQsqaUBKTNV-1" vertex="1">
          <mxGeometry x="383.5" y="420" width="20" height="20" as="geometry" />
        </mxCell>
        <mxCell id="XVykYsq7m5JyIRtIchRK-33" value="T" style="text;html=1;align=center;verticalAlign=middle;resizable=0;points=[];autosize=1;strokeColor=none;" parent="WIyWlLk6GJQsqaUBKTNV-1" vertex="1">
          <mxGeometry x="435.5" y="380" width="20" height="20" as="geometry" />
        </mxCell>
        <mxCell id="lEaxuK6CEblt7w8qeS9x-0" value="" style="endArrow=classic;html=1;entryX=1;entryY=0.5;entryDx=0;entryDy=0;exitX=0.5;exitY=0;exitDx=0;exitDy=0;rounded=0;" edge="1" parent="WIyWlLk6GJQsqaUBKTNV-1" target="XVykYsq7m5JyIRtIchRK-4">
          <mxGeometry width="50" height="50" relative="1" as="geometry">
            <mxPoint x="574.5" y="350" as="sourcePoint" />
            <mxPoint x="419.5" y="350" as="targetPoint" />
            <Array as="points">
              <mxPoint x="574.5" y="256" />
            </Array>
          </mxGeometry>
        </mxCell>
        <mxCell id="lEaxuK6CEblt7w8qeS9x-1" value="" style="edgeStyle=orthogonalEdgeStyle;rounded=0;orthogonalLoop=1;jettySize=auto;html=1;entryX=0.5;entryY=0;entryDx=0;entryDy=0;exitX=0.5;exitY=1;exitDx=0;exitDy=0;" edge="1" parent="WIyWlLk6GJQsqaUBKTNV-1" source="XVykYsq7m5JyIRtIchRK-4" target="XVykYsq7m5JyIRtIchRK-6">
          <mxGeometry relative="1" as="geometry">
            <mxPoint x="375.5" y="200" as="sourcePoint" />
            <mxPoint x="375.5" y="241" as="targetPoint" />
          </mxGeometry>
        </mxCell>
      </root>
    </mxGraphModel>
  </diagram>
</mxfile>
